<mxfile host="Electron" agent="Mozilla/5.0 (Windows NT 10.0; Win64; x64) AppleWebKit/537.36 (KHTML, like Gecko) draw.io/24.7.17 Chrome/128.0.6613.36 Electron/32.0.1 Safari/537.36" version="24.7.17">
  <diagram id="C5RBs43oDa-KdzZeNtuy" name="Page-1">
    <mxGraphModel dx="1687" dy="984" grid="1" gridSize="10" guides="1" tooltips="1" connect="1" arrows="1" fold="1" page="1" pageScale="1" pageWidth="827" pageHeight="1169" math="0" shadow="0">
      <root>
        <mxCell id="WIyWlLk6GJQsqaUBKTNV-0" />
        <mxCell id="WIyWlLk6GJQsqaUBKTNV-1" parent="WIyWlLk6GJQsqaUBKTNV-0" />
        <mxCell id="M3p9tpxNIS5mvUwaVuCo-1" value="Medico" style="rounded=0;whiteSpace=wrap;html=1;fontStyle=1" vertex="1" parent="WIyWlLk6GJQsqaUBKTNV-1">
          <mxGeometry x="54" y="120" width="200" height="40" as="geometry" />
        </mxCell>
        <mxCell id="M3p9tpxNIS5mvUwaVuCo-2" value="&lt;span style=&quot;font-weight: normal;&quot;&gt;&lt;u style=&quot;&quot;&gt;CRM&lt;/u&gt;&amp;nbsp;varchar(10) (PK)&lt;/span&gt;&lt;div style=&quot;line-height: 150%;&quot;&gt;&lt;span style=&quot;font-weight: normal;&quot;&gt;especialidade varchar(50)&lt;/span&gt;&lt;/div&gt;&lt;div style=&quot;line-height: 150%;&quot;&gt;&lt;span style=&quot;font-weight: normal;&quot;&gt;nome&amp;nbsp;&lt;span style=&quot;background-color: initial;&quot;&gt;varchar(50)&lt;/span&gt;&lt;/span&gt;&lt;/div&gt;&lt;div style=&quot;line-height: 150%;&quot;&gt;&lt;span style=&quot;font-weight: normal;&quot;&gt;telefone&amp;nbsp;&lt;span style=&quot;background-color: initial;&quot;&gt;varchar(50)&lt;/span&gt;&lt;/span&gt;&lt;/div&gt;&lt;div style=&quot;line-height: 150%;&quot;&gt;&lt;span style=&quot;font-weight: normal;&quot;&gt;email&amp;nbsp;&lt;span style=&quot;background-color: initial;&quot;&gt;varchar(50)&lt;/span&gt;&lt;/span&gt;&lt;/div&gt;&lt;div style=&quot;line-height: 150%;&quot;&gt;&lt;span style=&quot;font-weight: normal;&quot;&gt;rua&amp;nbsp;&lt;span style=&quot;background-color: initial;&quot;&gt;varchar(50)&lt;/span&gt;&lt;/span&gt;&lt;/div&gt;&lt;div style=&quot;line-height: 150%;&quot;&gt;&lt;span style=&quot;font-weight: normal;&quot;&gt;numero int(5)&lt;/span&gt;&lt;/div&gt;&lt;div style=&quot;line-height: 150%;&quot;&gt;&lt;span style=&quot;font-weight: normal;&quot;&gt;complemento&amp;nbsp;&lt;span style=&quot;background-color: initial;&quot;&gt;varchar(50)&lt;/span&gt;&lt;/span&gt;&lt;/div&gt;&lt;div style=&quot;line-height: 150%;&quot;&gt;&lt;span style=&quot;font-weight: normal;&quot;&gt;bairro&amp;nbsp;&lt;span style=&quot;background-color: initial;&quot;&gt;varchar(50)&lt;/span&gt;&lt;/span&gt;&lt;/div&gt;&lt;div style=&quot;line-height: 150%;&quot;&gt;&lt;span style=&quot;font-weight: normal;&quot;&gt;cep&amp;nbsp;&lt;span style=&quot;background-color: initial;&quot;&gt;varchar(50)&lt;/span&gt;&lt;/span&gt;&lt;/div&gt;&lt;div style=&quot;line-height: 150%;&quot;&gt;&lt;span style=&quot;font-weight: normal;&quot;&gt;cidade&amp;nbsp;&lt;span style=&quot;background-color: initial;&quot;&gt;varchar(50)&lt;/span&gt;&lt;/span&gt;&lt;/div&gt;&lt;div style=&quot;line-height: 150%;&quot;&gt;&lt;span style=&quot;font-weight: normal;&quot;&gt;estado&amp;nbsp;&lt;span style=&quot;background-color: initial;&quot;&gt;varchar(50)&lt;/span&gt;&lt;/span&gt;&lt;/div&gt;" style="rounded=0;whiteSpace=wrap;html=1;fontStyle=1;align=left;" vertex="1" parent="WIyWlLk6GJQsqaUBKTNV-1">
          <mxGeometry x="54" y="160" width="200" height="240" as="geometry" />
        </mxCell>
        <mxCell id="M3p9tpxNIS5mvUwaVuCo-3" value="Consulta" style="rounded=0;whiteSpace=wrap;html=1;fontStyle=1" vertex="1" parent="WIyWlLk6GJQsqaUBKTNV-1">
          <mxGeometry x="574" y="120" width="200" height="40" as="geometry" />
        </mxCell>
        <mxCell id="M3p9tpxNIS5mvUwaVuCo-4" value="" style="rounded=0;whiteSpace=wrap;html=1;fontStyle=1;align=left;" vertex="1" parent="WIyWlLk6GJQsqaUBKTNV-1">
          <mxGeometry x="574" y="160" width="200" height="110" as="geometry" />
        </mxCell>
        <mxCell id="M3p9tpxNIS5mvUwaVuCo-9" value="&lt;p style=&quot;text-align: center; font-weight: 700; line-height: 12px; font-size: 10px;&quot;&gt;&lt;u style=&quot;font-size: 10px;&quot;&gt;identificacao&lt;/u&gt;&lt;span style=&quot;font-weight: 400; font-size: 10px;&quot;&gt;&amp;nbsp;varchar(50) (PK)&lt;/span&gt;&lt;/p&gt;&lt;div style=&quot;text-align: center; font-size: 10px;&quot;&gt;&lt;span style=&quot;font-weight: 400; font-size: 10px;&quot;&gt;&lt;br style=&quot;font-size: 10px;&quot;&gt;&lt;/span&gt;&lt;/div&gt;" style="text;html=1;align=left;verticalAlign=middle;whiteSpace=wrap;rounded=0;spacingLeft=0;spacing=5;horizontal=1;fontSize=10;spacingTop=10;" vertex="1" parent="WIyWlLk6GJQsqaUBKTNV-1">
          <mxGeometry x="574" y="160" width="200" height="20" as="geometry" />
        </mxCell>
        <mxCell id="M3p9tpxNIS5mvUwaVuCo-10" value="&lt;p style=&quot;text-align: center; line-height: 12px; font-size: 10px;&quot;&gt;horario varchar(50)&lt;/p&gt;" style="text;html=1;align=left;verticalAlign=middle;whiteSpace=wrap;rounded=0;spacingLeft=5;spacing=0;horizontal=1;fontSize=10;spacingTop=0;" vertex="1" parent="WIyWlLk6GJQsqaUBKTNV-1">
          <mxGeometry x="574" y="200" width="200" height="20" as="geometry" />
        </mxCell>
        <mxCell id="M3p9tpxNIS5mvUwaVuCo-14" value="&lt;p style=&quot;text-align: center; line-height: 12px; font-size: 10px;&quot;&gt;CRM varchar(10) (FK)&lt;/p&gt;" style="text;html=1;align=left;verticalAlign=middle;whiteSpace=wrap;rounded=0;spacingLeft=5;spacing=0;horizontal=1;fontSize=10;spacingTop=0;" vertex="1" parent="WIyWlLk6GJQsqaUBKTNV-1">
          <mxGeometry x="574" y="220" width="200" height="20" as="geometry" />
        </mxCell>
        <mxCell id="M3p9tpxNIS5mvUwaVuCo-15" value="&lt;p style=&quot;text-align: center; line-height: 12px; font-size: 10px;&quot;&gt;CPF varchar(14) (FK)&lt;/p&gt;" style="text;html=1;align=left;verticalAlign=middle;whiteSpace=wrap;rounded=0;spacingLeft=5;spacing=0;horizontal=1;fontSize=10;spacingTop=0;" vertex="1" parent="WIyWlLk6GJQsqaUBKTNV-1">
          <mxGeometry x="574" y="240" width="200" height="20" as="geometry" />
        </mxCell>
        <mxCell id="M3p9tpxNIS5mvUwaVuCo-16" value="&lt;p style=&quot;text-align: center; line-height: 12px; font-size: 10px;&quot;&gt;data varchar(20)&lt;/p&gt;" style="text;html=1;align=left;verticalAlign=middle;whiteSpace=wrap;rounded=0;spacingLeft=5;spacing=0;horizontal=1;fontSize=10;spacingTop=0;" vertex="1" parent="WIyWlLk6GJQsqaUBKTNV-1">
          <mxGeometry x="574" y="180" width="200" height="20" as="geometry" />
        </mxCell>
        <mxCell id="M3p9tpxNIS5mvUwaVuCo-17" value="Paciente" style="rounded=0;whiteSpace=wrap;html=1;fontStyle=1" vertex="1" parent="WIyWlLk6GJQsqaUBKTNV-1">
          <mxGeometry x="574" y="610" width="200" height="40" as="geometry" />
        </mxCell>
        <mxCell id="M3p9tpxNIS5mvUwaVuCo-18" value="" style="rounded=0;whiteSpace=wrap;html=1;fontStyle=1;align=left;" vertex="1" parent="WIyWlLk6GJQsqaUBKTNV-1">
          <mxGeometry x="574" y="650" width="200" height="230" as="geometry" />
        </mxCell>
        <mxCell id="M3p9tpxNIS5mvUwaVuCo-19" value="&lt;p style=&quot;text-align: center; font-weight: 700; line-height: 12px; font-size: 12px;&quot;&gt;&lt;u style=&quot;font-size: 12px;&quot;&gt;CPF&lt;/u&gt;&amp;nbsp;varchar(14) (PK)&lt;/p&gt;" style="text;html=1;align=left;verticalAlign=middle;whiteSpace=wrap;rounded=0;spacingLeft=0;spacing=5;horizontal=1;fontSize=12;spacingTop=0;" vertex="1" parent="WIyWlLk6GJQsqaUBKTNV-1">
          <mxGeometry x="574" y="650" width="200" height="20" as="geometry" />
        </mxCell>
        <mxCell id="M3p9tpxNIS5mvUwaVuCo-20" value="&lt;p style=&quot;text-align: center; line-height: 12px; font-size: 12px;&quot;&gt;telefone&amp;nbsp;&lt;span style=&quot;background-color: initial; font-size: 12px;&quot;&gt;varchar(50)&lt;/span&gt;&lt;/p&gt;" style="text;html=1;align=left;verticalAlign=middle;whiteSpace=wrap;rounded=0;spacingLeft=5;spacing=0;horizontal=1;fontSize=12;spacingTop=0;" vertex="1" parent="WIyWlLk6GJQsqaUBKTNV-1">
          <mxGeometry x="574" y="690" width="200" height="20" as="geometry" />
        </mxCell>
        <mxCell id="M3p9tpxNIS5mvUwaVuCo-21" value="&lt;p style=&quot;text-align: center; line-height: 12px; font-size: 12px;&quot;&gt;email&amp;nbsp;&lt;span style=&quot;background-color: initial; font-size: 12px;&quot;&gt;varchar(50)&lt;/span&gt;&lt;/p&gt;" style="text;html=1;align=left;verticalAlign=middle;whiteSpace=wrap;rounded=0;spacingLeft=5;spacing=0;horizontal=1;fontSize=12;spacingTop=0;" vertex="1" parent="WIyWlLk6GJQsqaUBKTNV-1">
          <mxGeometry x="574" y="710" width="200" height="20" as="geometry" />
        </mxCell>
        <mxCell id="M3p9tpxNIS5mvUwaVuCo-22" value="&lt;p style=&quot;text-align: center; line-height: 12px; font-size: 12px;&quot;&gt;&lt;span style=&quot;font-size: 12px; text-align: left;&quot;&gt;rua&amp;nbsp;&lt;/span&gt;&lt;span style=&quot;font-size: 12px; text-align: left; background-color: initial;&quot;&gt;varchar(50)&lt;/span&gt;&lt;br style=&quot;font-size: 12px;&quot;&gt;&lt;/p&gt;" style="text;html=1;align=left;verticalAlign=middle;whiteSpace=wrap;rounded=0;spacingLeft=5;spacing=0;horizontal=1;fontSize=12;spacingTop=0;" vertex="1" parent="WIyWlLk6GJQsqaUBKTNV-1">
          <mxGeometry x="574" y="730" width="200" height="20" as="geometry" />
        </mxCell>
        <mxCell id="M3p9tpxNIS5mvUwaVuCo-23" value="&lt;p style=&quot;text-align: center; line-height: 12px; font-size: 12px;&quot;&gt;nome varchar(50)&lt;/p&gt;" style="text;html=1;align=left;verticalAlign=middle;whiteSpace=wrap;rounded=0;spacingLeft=5;spacing=0;horizontal=1;fontSize=12;spacingTop=0;" vertex="1" parent="WIyWlLk6GJQsqaUBKTNV-1">
          <mxGeometry x="574" y="670" width="200" height="20" as="geometry" />
        </mxCell>
        <mxCell id="M3p9tpxNIS5mvUwaVuCo-24" value="" style="endArrow=none;html=1;rounded=0;entryX=1;entryY=0.25;entryDx=0;entryDy=0;exitX=0;exitY=0;exitDx=0;exitDy=0;" edge="1" parent="WIyWlLk6GJQsqaUBKTNV-1" source="M3p9tpxNIS5mvUwaVuCo-14" target="M3p9tpxNIS5mvUwaVuCo-2">
          <mxGeometry width="50" height="50" relative="1" as="geometry">
            <mxPoint x="314" y="510" as="sourcePoint" />
            <mxPoint x="364" y="460" as="targetPoint" />
          </mxGeometry>
        </mxCell>
        <mxCell id="M3p9tpxNIS5mvUwaVuCo-25" value="" style="endArrow=none;html=1;rounded=0;entryX=0.5;entryY=1;entryDx=0;entryDy=0;exitX=0.5;exitY=0;exitDx=0;exitDy=0;" edge="1" parent="WIyWlLk6GJQsqaUBKTNV-1">
          <mxGeometry width="50" height="50" relative="1" as="geometry">
            <mxPoint x="694" y="610" as="sourcePoint" />
            <mxPoint x="694" y="270.0000000000001" as="targetPoint" />
          </mxGeometry>
        </mxCell>
        <mxCell id="M3p9tpxNIS5mvUwaVuCo-31" value="Consulta" style="rounded=0;whiteSpace=wrap;html=1;fontStyle=1" vertex="1" parent="WIyWlLk6GJQsqaUBKTNV-1">
          <mxGeometry x="54" y="610" width="200" height="40" as="geometry" />
        </mxCell>
        <mxCell id="M3p9tpxNIS5mvUwaVuCo-32" value="" style="rounded=0;whiteSpace=wrap;html=1;fontStyle=1;align=left;" vertex="1" parent="WIyWlLk6GJQsqaUBKTNV-1">
          <mxGeometry x="54" y="650" width="200" height="150" as="geometry" />
        </mxCell>
        <mxCell id="M3p9tpxNIS5mvUwaVuCo-34" value="" style="endArrow=none;html=1;rounded=0;entryX=0.399;entryY=1.013;entryDx=0;entryDy=0;entryPerimeter=0;exitX=0.402;exitY=0.014;exitDx=0;exitDy=0;exitPerimeter=0;" edge="1" parent="WIyWlLk6GJQsqaUBKTNV-1" source="M3p9tpxNIS5mvUwaVuCo-31" target="M3p9tpxNIS5mvUwaVuCo-2">
          <mxGeometry width="50" height="50" relative="1" as="geometry">
            <mxPoint x="304" y="610" as="sourcePoint" />
            <mxPoint x="354" y="560" as="targetPoint" />
          </mxGeometry>
        </mxCell>
        <mxCell id="M3p9tpxNIS5mvUwaVuCo-35" value="" style="endArrow=none;html=1;rounded=0;exitX=1;exitY=0.5;exitDx=0;exitDy=0;entryX=0;entryY=0.5;entryDx=0;entryDy=0;" edge="1" parent="WIyWlLk6GJQsqaUBKTNV-1" source="M3p9tpxNIS5mvUwaVuCo-43" target="M3p9tpxNIS5mvUwaVuCo-23">
          <mxGeometry width="50" height="50" relative="1" as="geometry">
            <mxPoint x="294" y="560" as="sourcePoint" />
            <mxPoint x="344" y="510" as="targetPoint" />
          </mxGeometry>
        </mxCell>
        <mxCell id="M3p9tpxNIS5mvUwaVuCo-36" value="&lt;div style=&quot;font-size: 12px; font-weight: 700; line-height: 18px;&quot;&gt;&lt;span style=&quot;font-weight: normal; font-size: 12px;&quot;&gt;numero int(5)&lt;/span&gt;&lt;/div&gt;" style="text;html=1;align=left;verticalAlign=middle;whiteSpace=wrap;rounded=0;spacingLeft=5;spacing=0;horizontal=1;fontSize=12;spacingTop=0;" vertex="1" parent="WIyWlLk6GJQsqaUBKTNV-1">
          <mxGeometry x="574" y="750" width="200" height="20" as="geometry" />
        </mxCell>
        <mxCell id="M3p9tpxNIS5mvUwaVuCo-37" value="&lt;p style=&quot;text-align: center; line-height: 12px; font-size: 12px;&quot;&gt;&lt;span style=&quot;font-size: 12px; text-align: left;&quot;&gt;complemento&amp;nbsp;&lt;/span&gt;&lt;span style=&quot;font-size: 12px; text-align: left; background-color: initial;&quot;&gt;varchar(50)&lt;/span&gt;&lt;br style=&quot;font-size: 12px;&quot;&gt;&lt;/p&gt;" style="text;html=1;align=left;verticalAlign=middle;whiteSpace=wrap;rounded=0;spacingLeft=5;spacing=0;horizontal=1;fontSize=12;spacingTop=0;" vertex="1" parent="WIyWlLk6GJQsqaUBKTNV-1">
          <mxGeometry x="574" y="770" width="200" height="20" as="geometry" />
        </mxCell>
        <mxCell id="M3p9tpxNIS5mvUwaVuCo-38" value="&lt;p style=&quot;text-align: center; line-height: 12px; font-size: 12px;&quot;&gt;&lt;span style=&quot;font-size: 12px; text-align: left;&quot;&gt;bairro&amp;nbsp;&lt;/span&gt;&lt;span style=&quot;font-size: 12px; text-align: left; background-color: initial;&quot;&gt;varchar(50)&lt;/span&gt;&lt;br style=&quot;font-size: 12px;&quot;&gt;&lt;/p&gt;" style="text;html=1;align=left;verticalAlign=middle;whiteSpace=wrap;rounded=0;spacingLeft=5;spacing=0;horizontal=1;fontSize=12;spacingTop=0;" vertex="1" parent="WIyWlLk6GJQsqaUBKTNV-1">
          <mxGeometry x="574" y="790" width="200" height="20" as="geometry" />
        </mxCell>
        <mxCell id="M3p9tpxNIS5mvUwaVuCo-39" value="&lt;p style=&quot;text-align: center; line-height: 12px; font-size: 12px;&quot;&gt;&lt;span style=&quot;font-size: 12px; text-align: left;&quot;&gt;CEP&amp;nbsp;&lt;/span&gt;&lt;span style=&quot;font-size: 12px; text-align: left; background-color: initial;&quot;&gt;varchar(50)&lt;/span&gt;&lt;br style=&quot;font-size: 12px;&quot;&gt;&lt;/p&gt;" style="text;html=1;align=left;verticalAlign=middle;whiteSpace=wrap;rounded=0;spacingLeft=5;spacing=0;horizontal=1;fontSize=12;spacingTop=0;" vertex="1" parent="WIyWlLk6GJQsqaUBKTNV-1">
          <mxGeometry x="574" y="810" width="200" height="20" as="geometry" />
        </mxCell>
        <mxCell id="M3p9tpxNIS5mvUwaVuCo-40" value="&lt;div style=&quot;font-size: 12px; font-weight: 700; line-height: 18px;&quot;&gt;&lt;span style=&quot;font-weight: normal; font-size: 12px;&quot;&gt;cidade&amp;nbsp;&lt;span style=&quot;background-color: initial; font-size: 12px;&quot;&gt;varchar(50)&lt;/span&gt;&lt;/span&gt;&lt;/div&gt;" style="text;html=1;align=left;verticalAlign=middle;whiteSpace=wrap;rounded=0;spacingLeft=5;spacing=0;horizontal=1;fontSize=12;spacingTop=0;" vertex="1" parent="WIyWlLk6GJQsqaUBKTNV-1">
          <mxGeometry x="574" y="830" width="200" height="20" as="geometry" />
        </mxCell>
        <mxCell id="M3p9tpxNIS5mvUwaVuCo-41" value="&lt;p style=&quot;text-align: center; line-height: 12px; font-size: 12px;&quot;&gt;&lt;span style=&quot;font-size: 12px; text-align: left;&quot;&gt;estado&amp;nbsp;&lt;/span&gt;&lt;span style=&quot;font-size: 12px; text-align: left; background-color: initial;&quot;&gt;varchar(50)&lt;/span&gt;&lt;br style=&quot;font-size: 12px;&quot;&gt;&lt;/p&gt;" style="text;html=1;align=left;verticalAlign=middle;whiteSpace=wrap;rounded=0;spacingLeft=5;spacing=0;horizontal=1;fontSize=12;spacingTop=0;" vertex="1" parent="WIyWlLk6GJQsqaUBKTNV-1">
          <mxGeometry x="574" y="850" width="200" height="20" as="geometry" />
        </mxCell>
        <mxCell id="M3p9tpxNIS5mvUwaVuCo-42" value="&lt;p style=&quot;text-align: center; font-weight: 700; line-height: 12px; font-size: 12px;&quot;&gt;&lt;u style=&quot;font-size: 12px;&quot;&gt;idConvenio&lt;/u&gt;&amp;nbsp;varchar(14) (PK)&lt;/p&gt;" style="text;html=1;align=left;verticalAlign=middle;whiteSpace=wrap;rounded=0;spacingLeft=0;spacing=5;horizontal=1;fontSize=12;spacingTop=0;" vertex="1" parent="WIyWlLk6GJQsqaUBKTNV-1">
          <mxGeometry x="54" y="650" width="200" height="20" as="geometry" />
        </mxCell>
        <mxCell id="M3p9tpxNIS5mvUwaVuCo-43" value="&lt;p style=&quot;text-align: center; line-height: 12px; font-size: 12px;&quot;&gt;&lt;span style=&quot;font-size: 12px;&quot;&gt;empresa varchar(50)&lt;/span&gt;&lt;/p&gt;" style="text;html=1;align=left;verticalAlign=middle;whiteSpace=wrap;rounded=0;spacingLeft=0;spacing=5;horizontal=1;fontSize=12;spacingTop=0;fontStyle=0" vertex="1" parent="WIyWlLk6GJQsqaUBKTNV-1">
          <mxGeometry x="54" y="670" width="200" height="20" as="geometry" />
        </mxCell>
        <mxCell id="M3p9tpxNIS5mvUwaVuCo-44" value="&lt;p style=&quot;text-align: center; line-height: 12px; font-size: 12px;&quot;&gt;&lt;span style=&quot;font-size: 12px;&quot;&gt;tipo varchar(50)&lt;/span&gt;&lt;/p&gt;" style="text;html=1;align=left;verticalAlign=middle;whiteSpace=wrap;rounded=0;spacingLeft=0;spacing=5;horizontal=1;fontSize=12;spacingTop=0;fontStyle=0" vertex="1" parent="WIyWlLk6GJQsqaUBKTNV-1">
          <mxGeometry x="54" y="690" width="200" height="20" as="geometry" />
        </mxCell>
        <mxCell id="M3p9tpxNIS5mvUwaVuCo-45" value="&lt;p style=&quot;text-align: center; line-height: 12px; font-size: 12px;&quot;&gt;&lt;span style=&quot;font-size: 12px;&quot;&gt;vencimento varchar(50)&lt;/span&gt;&lt;/p&gt;" style="text;html=1;align=left;verticalAlign=middle;whiteSpace=wrap;rounded=0;spacingLeft=0;spacing=5;horizontal=1;fontSize=12;spacingTop=0;fontStyle=0" vertex="1" parent="WIyWlLk6GJQsqaUBKTNV-1">
          <mxGeometry x="54" y="710" width="200" height="20" as="geometry" />
        </mxCell>
        <mxCell id="M3p9tpxNIS5mvUwaVuCo-46" value="&lt;p style=&quot;text-align: center; line-height: 12px; font-size: 12px;&quot;&gt;&lt;span style=&quot;font-size: 12px;&quot;&gt;coparticipacao varchar(50)&lt;/span&gt;&lt;/p&gt;" style="text;html=1;align=left;verticalAlign=middle;whiteSpace=wrap;rounded=0;spacingLeft=0;spacing=5;horizontal=1;fontSize=12;spacingTop=0;fontStyle=0" vertex="1" parent="WIyWlLk6GJQsqaUBKTNV-1">
          <mxGeometry x="54" y="730" width="200" height="20" as="geometry" />
        </mxCell>
        <mxCell id="M3p9tpxNIS5mvUwaVuCo-47" value="&lt;p style=&quot;text-align: center; line-height: 12px; font-size: 12px;&quot;&gt;CRM varchar(10) (FK)&lt;/p&gt;" style="text;html=1;align=left;verticalAlign=middle;whiteSpace=wrap;rounded=0;spacingLeft=5;spacing=0;horizontal=1;fontSize=12;spacingTop=0;" vertex="1" parent="WIyWlLk6GJQsqaUBKTNV-1">
          <mxGeometry x="54" y="750" width="200" height="20" as="geometry" />
        </mxCell>
        <mxCell id="M3p9tpxNIS5mvUwaVuCo-48" value="&lt;p style=&quot;text-align: center; line-height: 12px; font-size: 12px;&quot;&gt;CPF varchar(14) (FK)&lt;/p&gt;" style="text;html=1;align=left;verticalAlign=middle;whiteSpace=wrap;rounded=0;spacingLeft=5;spacing=0;horizontal=1;fontSize=12;spacingTop=0;" vertex="1" parent="WIyWlLk6GJQsqaUBKTNV-1">
          <mxGeometry x="54" y="770" width="200" height="20" as="geometry" />
        </mxCell>
        <mxCell id="M3p9tpxNIS5mvUwaVuCo-49" value="(1,1)" style="text;html=1;align=left;verticalAlign=middle;whiteSpace=wrap;rounded=0;" vertex="1" parent="WIyWlLk6GJQsqaUBKTNV-1">
          <mxGeometry x="254" y="190" width="60" height="30" as="geometry" />
        </mxCell>
        <mxCell id="M3p9tpxNIS5mvUwaVuCo-50" value="(0,n)" style="text;html=1;align=right;verticalAlign=middle;whiteSpace=wrap;rounded=0;" vertex="1" parent="WIyWlLk6GJQsqaUBKTNV-1">
          <mxGeometry x="514" y="190" width="60" height="30" as="geometry" />
        </mxCell>
        <mxCell id="M3p9tpxNIS5mvUwaVuCo-51" value="(1,1)" style="text;html=1;align=right;verticalAlign=middle;whiteSpace=wrap;rounded=0;" vertex="1" parent="WIyWlLk6GJQsqaUBKTNV-1">
          <mxGeometry x="74" y="400" width="60" height="30" as="geometry" />
        </mxCell>
        <mxCell id="M3p9tpxNIS5mvUwaVuCo-52" value="(0,1)" style="text;html=1;align=left;verticalAlign=middle;whiteSpace=wrap;rounded=0;" vertex="1" parent="WIyWlLk6GJQsqaUBKTNV-1">
          <mxGeometry x="254" y="650" width="60" height="30" as="geometry" />
        </mxCell>
        <mxCell id="M3p9tpxNIS5mvUwaVuCo-53" value="(1,1)" style="text;html=1;align=right;verticalAlign=middle;whiteSpace=wrap;rounded=0;" vertex="1" parent="WIyWlLk6GJQsqaUBKTNV-1">
          <mxGeometry x="514" y="650" width="60" height="30" as="geometry" />
        </mxCell>
        <mxCell id="M3p9tpxNIS5mvUwaVuCo-54" value="(1,1)" style="text;html=1;align=left;verticalAlign=middle;whiteSpace=wrap;rounded=0;" vertex="1" parent="WIyWlLk6GJQsqaUBKTNV-1">
          <mxGeometry x="694" y="580" width="60" height="30" as="geometry" />
        </mxCell>
        <mxCell id="M3p9tpxNIS5mvUwaVuCo-55" value="(0,n)" style="text;html=1;align=left;verticalAlign=middle;whiteSpace=wrap;rounded=0;" vertex="1" parent="WIyWlLk6GJQsqaUBKTNV-1">
          <mxGeometry x="694" y="270" width="60" height="30" as="geometry" />
        </mxCell>
      </root>
    </mxGraphModel>
  </diagram>
</mxfile>
